<?xml version="1.0" standalone="no"?>
<!DOCTYPE svg PUBLIC "-//W3C//DTD SVG 20010904//EN"
 "http://www.w3.org/TR/2001/REC-SVG-20010904/DTD/svg10.dtd">
<svg version="1.0" xmlns="http://www.w3.org/2000/svg"
 width="200.000000pt" height="200.000000pt" viewBox="0 0 200.000000 200.000000"
 preserveAspectRatio="xMidYMid meet">

<g transform="translate(0.000000,200.000000) scale(0.100000,-0.100000)"
fill="#000000" stroke="none">
<path d="M767 1414 c-4 -4 -7 -34 -7 -66 0 -58 0 -58 30 -58 30 0 30 -1 30
-55 l0 -55 50 0 c35 0 50 -4 50 -13 0 -8 -10 -13 -22 -13 -14 1 -23 -5 -23
-14 0 -9 9 -15 23 -14 15 0 22 -5 22 -18 0 -13 10 -20 31 -25 28 -5 30 -8 27
-47 -3 -41 -3 -41 -43 -41 -36 0 -40 3 -43 28 -3 26 -5 27 -68 27 l-65 0 3
-62 3 -63 60 0 c58 0 60 1 63 28 3 25 6 27 53 27 l49 0 0 50 c0 44 3 50 20 50
18 0 20 -4 14 -35 -6 -31 -4 -35 16 -35 20 0 22 4 16 33 -5 27 -2 34 16 42 14
6 24 21 26 38 3 25 7 27 48 27 l44 0 0 -50 c0 -49 -1 -50 -30 -50 -25 0 -30
-4 -29 -22 1 -17 2 -19 6 -5 3 13 15 17 54 17 l49 0 0 -56 0 -55 -47 3 c-44 3
-48 5 -55 33 -6 29 -6 29 -5 -5 l2 -35 60 0 60 0 0 60 c0 58 -1 60 -27 63 -27
3 -28 5 -28 63 l0 59 -50 0 c-30 0 -50 4 -50 11 0 7 12 9 35 5 31 -6 35 -5 35
15 0 19 -4 20 -34 15 -28 -5 -34 -3 -39 15 -3 11 -15 23 -26 26 -17 4 -21 13
-21 49 l0 44 40 0 c38 0 40 -2 40 -30 l0 -31 63 3 62 3 0 60 0 60 -62 3 -63 3
0 -31 c0 -29 -1 -30 -50 -30 l-50 0 0 -50 c0 -43 -3 -50 -20 -50 -22 0 -27 19
-9 37 13 13 4 33 -16 33 -16 0 -28 -27 -15 -35 20 -12 9 -33 -20 -38 -25 -6
-30 -11 -30 -37 0 -29 -2 -30 -45 -30 l-45 0 0 50 c0 49 1 50 30 50 25 0 30 4
30 23 -1 20 -2 20 -11 5 -7 -13 -23 -18 -54 -18 l-45 0 0 50 0 50 49 0 c46 0
50 -2 54 -27 4 -21 4 -19 3 7 l-1 35 -55 3 c-31 2 -59 0 -63 -4z m473 -64 l0
-50 -50 0 -50 0 0 50 0 50 50 0 50 0 0 -50z m-160 -180 l0 -70 -70 0 -70 0 0
70 0 70 70 0 70 0 0 -70z m-205 -185 l0 -50 -47 -3 -48 -3 0 56 0 56 48 -3 47
-3 0 -50z"/>
<path d="M1160 1355 c0 -33 2 -35 35 -35 33 0 35 2 35 35 0 33 -2 35 -35 35
-33 0 -35 -2 -35 -35z m50 0 c0 -18 -5 -25 -20 -25 -15 0 -20 7 -20 25 0 18 5
25 20 25 15 0 20 -7 20 -25z"/>
<path d="M954 1216 c-3 -7 -4 -33 -2 -57 l3 -44 55 0 55 0 0 54 c0 31 -5 56
-11 58 -8 3 -10 -12 -6 -47 l5 -50 -42 0 -41 0 0 40 c0 33 3 40 20 40 11 0 20
5 20 10 0 15 -50 12 -56 -4z"/>
<path d="M790 985 c0 -33 2 -35 35 -35 33 0 35 2 35 35 0 33 -2 35 -35 35 -33
0 -35 -2 -35 -35z m58 3 c-2 -15 -10 -23 -23 -23 -13 0 -21 8 -23 23 -3 18 1
22 23 22 22 0 26 -4 23 -22z"/>
<path d="M790 1355 c0 -33 2 -35 35 -35 33 0 35 2 35 35 0 33 -2 35 -35 35
-33 0 -35 -2 -35 -35z m60 0 c0 -20 -5 -25 -25 -25 -20 0 -25 5 -25 25 0 20 5
25 25 25 20 0 25 -5 25 -25z"/>
<path d="M1160 985 c0 -33 2 -35 35 -35 33 0 35 2 35 35 0 33 -2 35 -35 35
-33 0 -35 -2 -35 -35z m50 -1 c0 -33 -33 -30 -38 4 -3 17 2 22 17 22 16 0 21
-6 21 -26z"/>
<path d="M640 775 l0 -95 65 0 c58 0 65 2 65 20 0 17 -7 20 -45 20 l-45 0 0
75 c0 68 -2 75 -20 75 -19 0 -20 -7 -20 -95z"/>
<path d="M800 775 l0 -96 73 3 c56 2 72 6 72 18 0 11 -14 16 -52 18 -45 3 -53
6 -53 23 0 16 7 19 45 19 38 0 45 3 45 20 0 17 -7 20 -45 20 -38 0 -45 3 -45
20 0 17 7 20 50 20 38 0 50 4 50 15 0 12 -14 15 -70 15 l-70 0 0 -95z"/>
<path d="M1004 783 c-21 -47 -40 -90 -42 -95 -2 -4 6 -8 17 -8 14 0 25 9 31
25 8 21 16 25 53 25 37 0 46 -4 55 -25 7 -15 20 -25 32 -25 19 0 19 2 6 33
-63 148 -69 157 -91 157 -18 0 -29 -16 -61 -87z m80 0 c6 -20 4 -23 -18 -23
-29 0 -31 7 -14 45 12 27 19 23 32 -22z"/>
<path d="M1190 780 c0 -105 1 -106 86 -95 42 5 63 13 80 32 34 37 32 86 -5
124 -27 26 -36 29 -95 29 l-66 0 0 -90z m130 40 c43 -43 13 -100 -52 -100
l-38 0 0 60 0 60 35 0 c22 0 43 -8 55 -20z"/>
</g>
</svg>
