<svg xmlns="http://www.w3.org/2000/svg" xmlns:xlink="http://www.w3.org/1999/xlink" version="1.1" width="256" height="256" viewBox="0 0 256 256" xml:space="preserve">

<defs>
</defs>
<g style="stroke: none; stroke-width: 0; stroke-dasharray: none; stroke-linecap: butt; stroke-linejoin: miter; stroke-miterlimit: 10; fill: none; fill-rule: nonzero; opacity: 1;" transform="translate(1.4065934065934016 1.4065934065934016) scale(2.81 2.81)" >
	<path d="M 83.239 21.768 L 46 0.268 c -0.619 -0.357 -1.381 -0.357 -2 0 l -37.239 21.5 c -0.619 0.357 -1 1.018 -1 1.732 v 43 c 0 0.715 0.381 1.375 1 1.732 L 44 89.732 C 44.31 89.911 44.655 90 45 90 s 0.69 -0.089 1 -0.268 l 37.239 -21.5 c 0.619 -0.357 1 -1.018 1 -1.732 v -43 C 84.239 22.786 83.858 22.125 83.239 21.768 z M 29.783 66.337 c 0 1.001 -0.739 1.848 -1.731 1.981 c -0.091 0.013 -0.181 0.019 -0.271 0.019 c -0.887 0 -1.684 -0.591 -1.926 -1.467 L 20.05 45.882 v 15.214 c 0 1.104 -0.896 2 -2 2 s -2 -0.896 -2 -2 V 31.15 c 0 -1 0.739 -1.847 1.731 -1.982 c 0.992 -0.134 1.93 0.484 2.197 1.449 l 5.805 20.988 V 25.011 c 0 -1.104 0.896 -2 2 -2 s 2 0.896 2 2 V 66.337 z M 57.815 19.94 c -0.572 0.945 -1.802 1.247 -2.746 0.677 l -9.834 -5.943 l -6.974 4.167 V 42.83 h 15.6 c 1.104 0 2 0.896 2 2 s -0.896 2 -2 2 h -15.6 v 25.511 c 0 1.104 -0.896 2 -2 2 s -2 -0.896 -2 -2 V 17.707 c 0 -0.704 0.37 -1.356 0.974 -1.717 l 8.98 -5.366 c 0.635 -0.379 1.427 -0.376 2.06 0.005 l 10.862 6.564 C 58.083 17.765 58.387 18.994 57.815 19.94 z M 75.662 30.724 c -0.376 0.622 -1.037 0.966 -1.714 0.966 c -0.353 0 -0.709 -0.093 -1.032 -0.289 l -3.584 -2.166 v 36.601 c 0 1.104 -0.896 2 -2 2 s -2 -0.896 -2 -2 V 26.819 l -5.114 -3.09 c -0.945 -0.571 -1.249 -1.801 -0.678 -2.746 c 0.571 -0.947 1.803 -1.248 2.746 -0.678 l 12.698 7.673 C 75.93 28.549 76.233 29.779 75.662 30.724 z" style="stroke: none; stroke-width: 1; stroke-dasharray: none; stroke-linecap: butt; stroke-linejoin: miter; stroke-miterlimit: 10; fill: rgb(0,0,0); fill-rule: nonzero; opacity: 1;" transform=" matrix(1 0 0 1 0 0) " stroke-linecap="round" />
</g>
</svg>