<?xml version="1.0" encoding="UTF-8" standalone="no"?>
<!DOCTYPE svg PUBLIC "-//W3C//DTD SVG 1.1//EN" "http://www.w3.org/Graphics/SVG/1.1/DTD/svg11.dtd">
<!-- Created with Vectornator (http://vectornator.io/) -->
<svg height="100%" stroke-miterlimit="10" style="fill-rule:nonzero;clip-rule:evenodd;stroke-linecap:round;stroke-linejoin:round;" version="1.1" viewBox="0 0 500 500" width="100%" xml:space="preserve" xmlns="http://www.w3.org/2000/svg" xmlns:vectornator="http://vectornator.io" xmlns:xlink="http://www.w3.org/1999/xlink">
<defs/>
<g id="Layer-1" vectornator:layerName="Layer 1">
<g opacity="1">
<path d="M242.313 423.109L103.938 343.219C99.6925 340.767 96.2508 334.806 96.2508 329.904L96.2508 170.123C96.2508 165.22 99.6925 159.259 103.938 156.808L242.313 76.9171C246.558 74.4659 253.442 74.4659 257.687 76.9171L396.062 156.808C400.307 159.259 403.749 165.22 403.749 170.123L403.749 329.904C403.749 334.806 400.307 340.767 396.062 343.219L257.687 423.109C253.442 425.56 246.558 425.56 242.313 423.109Z" fill="#faf08f" fill-rule="evenodd" opacity="1" stroke="none"/>
<path d="M242.935 423.468L103.316 342.859C99.414 340.607 96.2508 335.128 96.2508 330.622L96.2508 169.404C96.2508 164.899 99.414 159.42 103.316 157.167L242.935 76.558C246.837 74.3051 246.972 74.521 243.236 77.0403L113.612 164.455C109.876 166.975 106.987 172.667 107.159 177.169L112.749 323.914C112.92 328.416 116.056 334.155 119.752 336.732L243.308 422.881C247.004 425.458 246.837 425.721 242.935 423.468Z" fill="#e8df85" fill-rule="evenodd" opacity="1" stroke="none"/>
<path d="M244.234 379.835L140.454 319.917C137.269 318.079 134.688 313.608 134.688 309.931L134.688 190.095C134.688 186.418 137.269 181.947 140.454 180.109L244.234 120.191C247.419 118.353 252.581 118.353 255.766 120.191L359.546 180.109C362.731 181.947 365.312 186.418 365.312 190.095L365.312 309.931C365.312 313.608 362.731 318.079 359.546 319.917L255.766 379.835C252.581 381.674 247.419 381.674 244.234 379.835Z" fill="#ffda7a" fill-rule="evenodd" opacity="1" stroke="none"/>
<path d="M254.669 379.819L347.53 313.283C350.108 311.436 352.289 308.963 352.401 307.761L358.158 206.65C358.512 200.445 354.715 192.465 349.677 188.825L251.552 117.92C250.695 117.336 252.227 118.148 254.974 119.734L360.338 180.566C363.085 182.152 365.312 186.009 365.312 189.181L365.312 310.845C365.312 314.017 363.085 317.874 360.338 319.46L254.974 380.292C252.227 381.878 252.09 381.666 254.669 379.819Z" fill="#ffc45f" fill-rule="evenodd" opacity="1" stroke="none"/>
<path d="M183.596 344.901L164.451 378.357L187.965 392.052L205.551 357.728L183.596 344.901Z" fill="#fdfadb" fill-rule="evenodd" opacity="1" stroke="none"/>
<path d="M304.557 103.172L285.412 136.628L308.926 150.323L326.512 115.999L304.557 103.172Z" fill="#fdfadb" fill-rule="evenodd" opacity="1" stroke="none"/>
<path d="M209.576 360.323L191.461 393.8L198.929 398.568L216.939 364.614L209.576 360.323Z" fill="#fdfadb" fill-rule="evenodd" opacity="1" stroke="none"/>
<path d="M329.583 118.679L311.467 152.156L318.936 156.924L336.945 122.97L329.583 118.679Z" fill="#fdfadb" fill-rule="evenodd" opacity="1" stroke="none"/>
<path d="M194.224 388.633L191.461 393.8L198.929 398.568L201.548 393.758L194.224 388.633Z" fill="#f3eebf" fill-rule="evenodd" opacity="1" stroke="none"/>
<path d="M168.96 370.649L164.451 378.357L187.965 392.052L190.953 386.302C184.265 382.665 168.96 370.649 168.96 370.649Z" fill="#f3eebf" fill-rule="evenodd" opacity="1" stroke="none"/>
<path d="M250 117.312C247.654 117.313 245.324 117.853 243.5 118.906L139.719 178.812C136.07 180.919 133.187 185.881 133.188 190.094L133.188 309.938C133.188 314.15 136.07 319.112 139.719 321.219C139.719 321.219 243.5 381.125 243.5 381.125C245.324 382.178 247.654 382.719 250 382.719C252.346 382.719 254.676 382.178 256.5 381.125L360.281 321.219C363.93 319.112 366.812 314.15 366.812 309.938L366.812 190.094C366.812 185.881 363.93 180.919 360.281 178.812L256.5 118.906C254.676 117.853 252.346 117.312 250 117.312ZM250 120.312C251.828 120.313 253.64 120.715 255 121.5L358.781 181.406C361.501 182.977 363.812 186.953 363.812 190.094L363.812 309.938C363.812 313.078 361.502 317.055 358.781 318.625L255 378.531C252.28 380.102 247.72 380.102 245 378.531L141.219 318.625C138.499 317.055 136.187 313.078 136.188 309.938L136.188 190.094C136.188 186.953 138.499 182.977 141.219 181.406L245 121.5C246.36 120.715 248.172 120.312 250 120.312Z" fill="#0c2e56" fill-rule="evenodd" opacity="1" stroke="none"/>
<path d="M250 73.5938C246.959 73.5938 243.917 74.2654 241.562 75.625L103.188 155.5C98.4777 158.219 94.75 164.687 94.75 170.125L94.75 329.906C94.75 335.345 98.4777 341.812 103.188 344.531C103.188 344.531 241.562 424.406 241.562 424.406C243.917 425.766 246.959 426.437 250 426.438C253.041 426.438 256.083 425.766 258.438 424.406L396.812 344.531C401.522 341.812 405.25 335.345 405.25 329.906L405.25 170.125C405.25 164.687 401.522 158.219 396.812 155.5L258.438 75.625C256.083 74.2654 253.041 73.5937 250 73.5938ZM250 76.5938C252.523 76.5938 255.047 77.1271 256.938 78.2188L395.312 158.094C399.094 160.277 402.25 165.758 402.25 170.125L402.25 329.906C402.25 334.273 399.094 339.723 395.312 341.906L256.938 421.812C253.156 423.996 246.844 423.996 243.062 421.812L104.688 341.906C100.906 339.723 97.75 334.273 97.75 329.906L97.75 170.125C97.75 165.758 100.906 160.277 104.688 158.094L243.062 78.2188C244.953 77.1271 247.477 76.5937 250 76.5938Z" fill="#0c2e56" fill-rule="evenodd" opacity="1" stroke="none"/>
<g opacity="1">
<path d="M176.005 225.57L204.547 268.758L204.547 225.17C204.547 222.338 205.155 220.213 206.371 218.797C207.587 217.381 209.229 216.673 211.295 216.673C213.427 216.673 215.11 217.381 216.343 218.797C217.576 220.213 218.193 222.338 218.193 225.17L218.193 282.803C218.193 289.235 215.527 292.451 210.195 292.451C208.862 292.451 207.662 292.259 206.596 291.876C205.53 291.493 204.53 290.884 203.597 290.051C202.664 289.218 201.797 288.244 200.998 287.127C200.198 286.011 199.398 284.87 198.598 283.703L170.756 241.016L170.756 283.953C170.756 286.752 170.107 288.868 168.807 290.301C167.507 291.734 165.841 292.451 163.808 292.451C161.709 292.451 160.026 291.726 158.76 290.276C157.493 288.827 156.86 286.719 156.86 283.953L156.86 227.419C156.86 225.02 157.127 223.137 157.66 221.771C158.293 220.271 159.343 219.047 160.809 218.097C162.275 217.147 163.858 216.673 165.558 216.673C166.891 216.673 168.032 216.889 168.982 217.322C169.932 217.756 170.765 218.339 171.481 219.072C172.198 219.805 172.931 220.755 173.68 221.921C174.43 223.087 175.205 224.304 176.005 225.57Z" fill="#5250d9" fill-rule="evenodd" opacity="1" stroke="none"/>
<path d="M276.304 229.369L247.062 229.369L247.062 248.113L271.505 248.113C273.771 248.113 275.462 248.622 276.578 249.638C277.695 250.654 278.253 252.012 278.253 253.712C278.253 255.411 277.686 256.761 276.553 257.761C275.42 258.76 273.738 259.26 271.505 259.26L247.062 259.26L247.062 283.403C247.062 286.469 246.37 288.743 244.988 290.226C243.605 291.709 241.83 292.451 239.664 292.451C237.465 292.451 235.674 291.701 234.291 290.201C232.908 288.702 232.216 286.436 232.216 283.403L232.216 227.02C232.216 224.887 232.533 223.146 233.166 221.796C233.799 220.446 234.79 219.463 236.14 218.847C237.49 218.23 239.214 217.922 241.314 217.922L276.304 217.922C278.67 217.922 280.427 218.447 281.577 219.497C282.727 220.546 283.302 221.921 283.302 223.621C283.302 225.353 282.727 226.745 281.577 227.794C280.427 228.844 278.67 229.369 276.304 229.369Z" fill="#5250d9" fill-rule="evenodd" opacity="1" stroke="none"/>
<path d="M343.857 230.169L327.661 230.169L327.661 283.403C327.661 286.469 326.978 288.743 325.612 290.226C324.246 291.709 322.479 292.451 320.313 292.451C318.114 292.451 316.323 291.701 314.94 290.201C313.557 288.702 312.865 286.436 312.865 283.403L312.865 230.169L296.67 230.169C294.138 230.169 292.255 229.61 291.022 228.494C289.789 227.378 289.172 225.903 289.172 224.07C289.172 222.171 289.814 220.671 291.097 219.572C292.38 218.472 294.237 217.922 296.67 217.922L343.857 217.922C346.422 217.922 348.33 218.489 349.58 219.622C350.83 220.755 351.454 222.238 351.454 224.07C351.454 225.903 350.821 227.378 349.555 228.494C348.289 229.61 346.389 230.169 343.857 230.169Z" fill="#5250d9" fill-rule="evenodd" opacity="1" stroke="none"/>
<path d="M165.562 215.188C163.571 215.188 161.707 215.738 160 216.844C158.286 217.954 157.034 219.406 156.281 221.188C155.655 222.791 155.375 224.836 155.375 227.406L155.375 283.969C155.375 287.07 156.093 289.496 157.625 291.25C159.184 293.034 161.29 293.937 163.812 293.938C166.263 293.938 168.318 293.063 169.906 291.312C171.485 289.571 172.25 287.111 172.25 283.969L172.25 246.062L197.344 284.531C198.169 285.735 198.975 286.875 199.781 288C200.644 289.204 201.576 290.248 202.594 291.156C203.667 292.114 204.841 292.831 206.094 293.281C207.33 293.726 208.688 293.937 210.188 293.938C216.416 293.938 219.688 290.017 219.688 282.812L219.688 225.156C219.688 221.992 218.97 219.537 217.469 217.812C215.94 216.056 213.833 215.187 211.281 215.188C208.79 215.188 206.729 216.054 205.219 217.812C203.738 219.537 203.031 221.995 203.031 225.156L203.031 263.719L177.281 224.781C176.479 223.512 175.689 222.295 174.938 221.125C174.136 219.879 173.356 218.843 172.562 218.031C171.716 217.165 170.711 216.478 169.594 215.969C168.435 215.44 167.099 215.188 165.562 215.188ZM165.562 218.188C166.692 218.188 167.603 218.35 168.344 218.688C169.126 219.044 169.82 219.525 170.406 220.125C171.046 220.779 171.708 221.632 172.406 222.719C173.154 223.882 174.75 226.406 174.75 226.406L203.281 269.594C204.101 270.835 206.031 270.237 206.031 268.75L206.031 225.156C206.031 222.652 206.548 220.89 207.5 219.781C208.423 218.707 209.64 218.188 211.281 218.188C212.995 218.188 214.282 218.705 215.219 219.781C216.183 220.889 216.687 222.656 216.688 225.156L216.688 282.812C216.688 288.471 214.622 290.938 210.188 290.938C209.021 290.938 207.99 290.791 207.094 290.469C206.213 290.152 205.387 289.645 204.594 288.938C203.745 288.18 202.956 287.279 202.219 286.25C201.425 285.142 200.638 284.002 199.844 282.844L172 240.188C171.185 238.938 169.25 239.508 169.25 241L169.25 283.969C169.25 286.425 168.708 288.157 167.688 289.281C166.676 290.396 165.428 290.938 163.812 290.938C162.136 290.938 160.849 290.396 159.875 289.281C158.875 288.136 158.375 286.4 158.375 283.969L158.375 227.406C158.375 225.178 158.607 223.479 159.062 222.312C159.561 221.133 160.406 220.133 161.625 219.344C162.85 218.55 164.155 218.187 165.562 218.188Z" fill="#0c2e56" fill-rule="evenodd" opacity="1" stroke="none"/>
<path d="M241.312 216.438C239.013 216.438 237.096 216.754 235.531 217.469C233.858 218.233 232.596 219.485 231.812 221.156C231.076 222.726 230.719 224.694 230.719 227.031L230.719 283.406C230.719 286.785 231.517 289.407 233.188 291.219C234.861 293.033 237.047 293.937 239.656 293.938C242.231 293.938 244.422 293.043 246.094 291.25C247.77 289.453 248.562 286.82 248.562 283.406L248.562 260.75L271.5 260.75C274.069 260.75 276.09 260.146 277.531 258.875C278.998 257.58 279.75 255.835 279.75 253.719C279.75 251.61 279.033 249.842 277.594 248.531C276.165 247.231 274.108 246.625 271.5 246.625L248.562 246.625L248.562 230.875L276.312 230.875C279.021 230.875 281.131 230.242 282.594 228.906C284.065 227.563 284.812 225.767 284.812 223.625C284.812 221.514 284.063 219.716 282.594 218.375C281.131 217.039 279.021 216.437 276.312 216.438L241.312 216.438ZM241.312 219.438L276.312 219.438C278.336 219.438 279.726 219.83 280.562 220.594C281.393 221.352 281.812 222.337 281.812 223.625C281.812 224.948 281.391 225.931 280.562 226.688C279.726 227.451 278.336 227.875 276.312 227.875L247.062 227.875C246.234 227.875 245.562 228.547 245.562 229.375L245.562 248.125C245.562 248.953 246.234 249.625 247.062 249.625L271.5 249.625C273.424 249.625 274.758 250.018 275.562 250.75C276.356 251.472 276.75 252.428 276.75 253.719C276.75 255.001 276.361 255.92 275.562 256.625C274.737 257.353 273.397 257.75 271.5 257.75L247.062 257.75C246.234 257.75 245.562 258.422 245.562 259.25L245.562 283.406C245.562 286.124 244.965 288.05 243.875 289.219C242.781 290.392 241.414 290.937 239.656 290.938C237.867 290.938 236.499 290.372 235.406 289.188C234.311 288 233.719 286.093 233.719 283.406L233.719 227.031C233.719 225.103 234.001 223.567 234.531 222.438C235.014 221.409 235.724 220.687 236.75 220.219C237.884 219.701 239.413 219.437 241.312 219.438Z" fill="#0c2e56" fill-rule="evenodd" opacity="1" stroke="none"/>
<path d="M296.656 216.438C293.893 216.438 291.711 217.078 290.125 218.438C288.498 219.832 287.687 221.739 287.688 224.062C287.688 226.308 288.444 228.185 290 229.594C291.546 230.993 293.783 231.656 296.656 231.656L311.375 231.656L311.375 283.406C311.375 286.785 312.173 289.407 313.844 291.219C315.517 293.033 317.703 293.937 320.312 293.938C322.889 293.938 325.062 293.048 326.719 291.25C328.374 289.453 329.156 286.817 329.156 283.406L329.156 231.656L343.844 231.656C346.711 231.656 348.956 231.014 350.531 229.625C352.128 228.217 352.969 226.316 352.969 224.062C352.969 221.816 352.165 219.924 350.594 218.5C349.031 217.083 346.751 216.438 343.844 216.438L296.656 216.438ZM296.656 219.438L343.844 219.438C346.069 219.438 347.626 219.869 348.562 220.719C349.491 221.56 349.969 222.643 349.969 224.062C349.969 225.474 349.498 226.55 348.562 227.375C347.605 228.219 346.041 228.656 343.844 228.656L327.656 228.656C326.828 228.656 326.156 229.328 326.156 230.156L326.156 283.406C326.156 286.127 325.577 288.05 324.5 289.219C323.424 290.387 322.068 290.937 320.312 290.938C318.523 290.938 317.124 290.372 316.031 289.188C314.936 288 314.375 286.093 314.375 283.406L314.375 230.156C314.375 229.328 313.703 228.656 312.875 228.656L296.656 228.656C294.464 228.656 292.951 228.208 292.031 227.375C291.121 226.551 290.687 225.483 290.688 224.062C290.688 222.587 291.124 221.523 292.062 220.719C293.043 219.879 294.554 219.437 296.656 219.438Z" fill="#0c2e56" fill-rule="evenodd" opacity="1" stroke="none"/>
</g>
<path d="M250 153.378L305.648 185.506L266.608 167.604C257.165 163.274 243.918 162.378 237.019 165.601C237.019 165.601 194.071 185.67 194.072 185.668C195.646 183.144 250 153.378 250 153.378Z" fill="#ffc45f" fill-rule="evenodd" opacity="1" stroke="none"/>
<path d="M250 337.439L305.648 305.311L266.608 323.213C257.165 327.543 243.918 328.44 237.019 325.216C237.019 325.216 194.071 305.148 194.072 305.149C195.646 307.673 250 337.439 250 337.439Z" fill="#ffc45f" fill-rule="evenodd" opacity="1" stroke="none"/>
<path d="M250 153.75C247.727 153.75 245.456 154.26 243.688 155.281L193.312 184.375C192.595 184.789 192.367 185.689 192.781 186.406C193.195 187.124 194.095 187.383 194.812 186.969L245.188 157.875C247.797 156.369 252.203 156.369 254.812 157.875L304.906 186.812C305.624 187.227 306.523 186.967 306.938 186.25C307.352 185.533 307.124 184.633 306.406 184.219L256.312 155.281C254.544 154.26 252.273 153.75 250 153.75Z" fill="#0c2e56" fill-rule="evenodd" opacity="1" stroke="none"/>
<path d="M193.688 304.719C193.317 304.818 192.988 305.048 192.781 305.406C192.367 306.124 192.595 307.055 193.312 307.469L243.688 336.562C245.456 337.584 247.727 338.094 250 338.094C252.273 338.094 254.544 337.584 256.312 336.562L306.406 307.625C307.124 307.211 307.352 306.311 306.938 305.594C306.523 304.876 305.624 304.617 304.906 305.031L254.812 333.938C252.203 335.444 247.797 335.444 245.188 333.938L194.812 304.875C194.454 304.668 194.058 304.619 193.688 304.719Z" fill="#0c2e56" fill-rule="evenodd" opacity="1" stroke="none"/>
</g>
</g>
</svg>
